# xmcd CD database file
#
# Track frame offsets:
#	150
#	19339
#	34968
#	59951
#	74299
#	94019
#	123135
#	147113
#	167015
#	185401
#	206209
#	222074
#
# Disc length: 3237 seconds
#
# Revision: 0
# Processed by: cddbd v1.5.2PL0 Copyright (c) Steve Scherf et al.
# Submitted via: CDex 1.51
#
DISCID=b50ca30c
DTITLE=Doug MacLeod - Unmarked Road
DYEAR=1997
DGENRE=Blues
TTITLE0=Unmarked Road
TTITLE1=Necessary Clothes
TTITLE2=Little Songbird
TTITLE3=Home Cookin'
TTITLE4=Talking With Strangers
TTITLE5=Roll Like A River
TTITLE6=Lost Like The Wind At Night
TTITLE7=I Want You
TTITLE8=Children Like You
TTITLE9=Night Run To Freedom
TTITLE10=Cross-Eyed In The Mind
TTITLE11=Old Country Road
EXTD=YEAR: 1997
EXTT0=
EXTT1=
EXTT2=
EXTT3=
EXTT4=
EXTT5=
EXTT6=
EXTT7=
EXTT8=
EXTT9=
EXTT10=
EXTT11=
PLAYORDER=
